<?xml version="1.0" encoding="iso-8859-1"?>
<!-- Generator: Adobe Illustrator 17.1.0, SVG Export Plug-In . SVG Version: 6.00 Build 0)  -->
<!DOCTYPE svg PUBLIC "-//W3C//DTD SVG 1.1//EN" "http://www.w3.org/Graphics/SVG/1.1/DTD/svg11.dtd">
<svg version="1.1" id="Capa_1" xmlns="http://www.w3.org/2000/svg" xmlns:xlink="http://www.w3.org/1999/xlink" x="0px" y="0px"
	 viewBox="0 0 205 205" style="enable-background:new 0 0 205 205;" xml:space="preserve">
<path d="M205,141.5c0,35.438-2.586,50.251-18.612,50.251l-0.946-0.001l-0.331,0.001c-3.303,0-11.038,0-14.915-10.507
	c-2.206-5.977-3.355-15.933-3.63-31.744h-31.313v2.593c0,9.461-7.696,17.157-17.156,17.157H86.902
	c-9.46,0-17.156-7.696-17.156-17.157V149.5H38.444c-0.439,29.671-3.796,42.251-18.556,42.251l-0.946-0.001l-0.331,0.001
	c-3.303,0-11.038,0-14.915-10.507C1.14,174.314,0,162.056,0,141.5c0-22.444,1.362-52.797,3.469-77.327
	C4.623,50.745,5.909,39.984,7.292,32.19c1.418-7.993,3.36-18.94,11.958-18.94s10.54,10.947,11.958,18.94
	c1.383,7.794,2.669,18.555,3.823,31.982c1.896,22.069,3.185,48.832,3.425,70.327h31.29v-28.594c0-9.46,7.696-17.156,17.156-17.156
	H95V68.5c0-4.143,3.358-7.5,7.5-7.5s7.5,3.357,7.5,7.5v20.25h8.098c9.46,0,17.156,7.696,17.156,17.156V134.5h31.29
	c0.24-21.496,1.529-48.258,3.425-70.327c1.153-13.428,2.439-24.188,3.823-31.982c1.418-7.993,3.36-18.94,11.958-18.94
	s10.54,10.947,11.958,18.94c1.383,7.794,2.669,18.555,3.823,31.982C203.638,88.703,205,119.055,205,141.5z"/>
<g>
</g>
<g>
</g>
<g>
</g>
<g>
</g>
<g>
</g>
<g>
</g>
<g>
</g>
<g>
</g>
<g>
</g>
<g>
</g>
<g>
</g>
<g>
</g>
<g>
</g>
<g>
</g>
<g>
</g>
</svg>
