<?xml version="1.0" encoding="iso-8859-1"?>
<!-- Generator: Adobe Illustrator 17.1.0, SVG Export Plug-In . SVG Version: 6.00 Build 0)  -->
<!DOCTYPE svg PUBLIC "-//W3C//DTD SVG 1.1//EN" "http://www.w3.org/Graphics/SVG/1.1/DTD/svg11.dtd">
<svg version="1.1" id="Capa_1" xmlns="http://www.w3.org/2000/svg" xmlns:xlink="http://www.w3.org/1999/xlink" x="0px" y="0px"
	 viewBox="0 0 211.615 211.615" style="enable-background:new 0 0 211.615 211.615;" xml:space="preserve">
<path d="M210.89,10.717c1.36-2.866,0.771-6.277-1.472-8.521c-2.245-2.243-5.657-2.832-8.521-1.472
	c-1.813,0.861-44.836,21.515-82.658,59.337c-6.564,6.564-13.607,14.285-20.768,22.568l-41.124-4.188l16.17-16.17
	c2.929-2.93,2.929-7.678,0-10.607c-2.93-2.928-7.678-2.928-10.607,0L37.093,76.481L8.26,73.545c-2.562-0.263-5.07,0.807-6.658,2.828
	s-2.029,4.716-1.171,7.139l30.172,85.111c-2.755,3.832-4.463,6.249-4.826,6.764c-2.103,2.982-1.754,7.045,0.826,9.626
	c1.452,1.451,3.372,2.196,5.306,2.196c1.504,0,3.016-0.451,4.32-1.37c0.515-0.363,2.932-2.071,6.764-4.827l85.11,30.171
	c0.816,0.289,1.663,0.431,2.505,0.431c0.014,0,0.027,0,0.04,0c4.134-0.01,7.48-3.364,7.48-7.5c0-0.45-0.039-0.89-0.115-1.318
	l-2.879-28.274l24.817-24.817c2.929-2.93,2.929-7.678,0-10.607c-2.93-2.928-7.678-2.928-10.607,0l-16.17,16.17l-4.188-41.123
	c8.283-7.162,16.004-14.205,22.569-20.769C189.376,55.553,210.029,12.53,210.89,10.717z M97.462,124.759l-28.233,28.234
	c-1.465,1.465-3.385,2.197-5.304,2.197c-1.919,0-3.839-0.732-5.303-2.196c-2.93-2.93-2.93-7.678-0.001-10.606l28.233-28.234
	c2.93-2.93,7.679-2.929,10.606-0.001C100.391,117.083,100.391,121.831,97.462,124.759z"/>
<g>
</g>
<g>
</g>
<g>
</g>
<g>
</g>
<g>
</g>
<g>
</g>
<g>
</g>
<g>
</g>
<g>
</g>
<g>
</g>
<g>
</g>
<g>
</g>
<g>
</g>
<g>
</g>
<g>
</g>
</svg>
