<?xml version="1.0" encoding="iso-8859-1"?>
<!-- Generator: Adobe Illustrator 17.1.0, SVG Export Plug-In . SVG Version: 6.00 Build 0)  -->
<!DOCTYPE svg PUBLIC "-//W3C//DTD SVG 1.1//EN" "http://www.w3.org/Graphics/SVG/1.1/DTD/svg11.dtd">
<svg version="1.1" id="Capa_1" xmlns="http://www.w3.org/2000/svg" xmlns:xlink="http://www.w3.org/1999/xlink" x="0px" y="0px"
	 viewBox="0 0 213.1 213.1" style="enable-background:new 0 0 213.1 213.1;" xml:space="preserve">
<path d="M210.903,2.196c-2.234-2.231-5.626-2.828-8.487-1.487c-1.092,0.512-26.129,12.473-61.349,46.611
	c-14.223,4.604-57.99,18.252-85.383,21.07C19.024,72.162,2.175,94.36,1.476,95.304c-2.214,2.985-1.907,7.142,0.721,9.771
	l7.282,7.282l-6.934,6.934c-2.929,2.93-2.929,7.678,0,10.607c1.464,1.464,3.384,2.196,5.303,2.196s3.839-0.732,5.303-2.196
	l6.935-6.935l6.915,6.915l-6.934,6.934c-2.929,2.93-2.929,7.678,0,10.607c1.464,1.464,3.384,2.196,5.303,2.196
	s3.839-0.732,5.303-2.196l6.935-6.935l12.2,12.2l23.034-23.035c2.929-2.928,7.678-2.928,10.606,0c2.929,2.93,2.929,7.678,0,10.607
	l-23.034,23.034l12.2,12.2l-6.935,6.935c-2.929,2.93-2.929,7.678,0,10.607c1.464,1.464,3.384,2.196,5.303,2.196
	s3.839-0.732,5.303-2.196l6.935-6.935l6.915,6.915l-6.934,6.934c-2.929,2.93-2.929,7.678,0,10.607
	c1.464,1.464,3.384,2.196,5.303,2.196s3.839-0.732,5.303-2.196l6.935-6.935l7.282,7.282c1.453,1.453,3.374,2.196,5.306,2.196
	c1.561,0,3.13-0.486,4.465-1.476c0.943-0.699,23.141-17.549,26.913-54.208c2.818-27.392,16.465-71.159,21.07-85.382
	c34.14-35.221,46.1-60.259,46.612-61.35C213.731,7.823,213.136,4.43,210.903,2.196z M179.057,44.651l-17.662,17.661
	c-1.464,1.464-3.384,2.196-5.303,2.196s-3.839-0.732-5.303-2.196c-2.929-2.93-2.929-7.678,0-10.607l17.662-17.661
	c2.929-2.928,7.678-2.928,10.606,0C181.986,36.973,181.986,41.721,179.057,44.651z"/>
<g>
</g>
<g>
</g>
<g>
</g>
<g>
</g>
<g>
</g>
<g>
</g>
<g>
</g>
<g>
</g>
<g>
</g>
<g>
</g>
<g>
</g>
<g>
</g>
<g>
</g>
<g>
</g>
<g>
</g>
</svg>
