<?xml version="1.0" encoding="iso-8859-1"?>
<!-- Generator: Adobe Illustrator 17.1.0, SVG Export Plug-In . SVG Version: 6.00 Build 0)  -->
<!DOCTYPE svg PUBLIC "-//W3C//DTD SVG 1.1//EN" "http://www.w3.org/Graphics/SVG/1.1/DTD/svg11.dtd">
<svg version="1.1" id="Capa_1" xmlns="http://www.w3.org/2000/svg" xmlns:xlink="http://www.w3.org/1999/xlink" x="0px" y="0px"
	 viewBox="0 0 204.442 204.442" style="enable-background:new 0 0 204.442 204.442;" xml:space="preserve">
<path d="M198.51,5.937C194.682,2.108,189.592,0,184.177,0c-5.414,0-10.504,2.108-14.333,5.937L140.11,35.671l-20.021-0.187
	c-3.041-0.031-5.807,1.789-6.985,4.598c-1.179,2.809-0.542,6.052,1.612,8.206l6.389,6.389L90.687,85.095l-47.116,9.201
	c-2.721,0.532-4.926,2.521-5.736,5.172c-0.809,2.651-0.09,5.532,1.87,7.493l5.765,5.765c-6.593,2.835-14.794,7.444-22.076,14.726
	C8.602,142.245,2.781,165.489,2.54,166.472c-0.633,2.584,0.15,5.31,2.059,7.164c1.286,1.248,2.952,1.976,4.686,2.101l-8.553,17.985
	c-1.363,2.866-0.774,6.279,1.47,8.524c1.438,1.438,3.358,2.196,5.305,2.196c1.091,0,2.19-0.237,3.219-0.727l17.985-8.553
	c0.125,1.734,0.853,3.399,2.101,4.685c1.854,1.908,4.58,2.689,7.164,2.06c0.982-0.241,24.226-6.062,39.019-20.855
	c7.282-7.282,11.891-15.483,14.726-22.076l5.766,5.766c1.428,1.427,3.344,2.196,5.304,2.196c0.731,0,1.469-0.106,2.189-0.327
	c2.651-0.809,4.64-3.015,5.171-5.735l9.202-47.116l30.417-30.417l6.389,6.39c1.458,1.457,3.4,2.203,5.397,2.196
	c4.108-0.04,7.426-3.383,7.426-7.5c0-0.21-0.009-0.417-0.025-0.622l-0.182-19.47l29.735-29.734
	C206.413,26.699,206.413,13.841,198.51,5.937z M66.389,170.445c-5.553,5.554-12.931,9.613-19.201,12.358
	c0.425-2.592-0.539-5.245-2.581-6.959c-1.378-1.155-3.091-1.754-4.822-1.754c-1.093,0-2.193,0.239-3.22,0.727l-13.225,6.289
	l6.289-13.225c1.261-2.65,0.859-5.792-1.027-8.041c-1.718-2.048-4.382-3.011-6.979-2.578c2.737-6.256,6.796-13.622,12.377-19.203
	c8.105-8.106,17.92-12.043,23.12-13.683l22.948,22.948C78.426,152.535,74.49,162.345,66.389,170.445z M104.197,110.857
	l-17.088,17.088c-1.464,1.465-3.384,2.197-5.303,2.197s-3.839-0.732-5.303-2.196c-2.929-2.93-2.929-7.678,0-10.606l17.088-17.09
	c2.929-2.928,7.678-2.928,10.606,0C107.126,103.18,107.126,107.928,104.197,110.857z"/>
<g>
</g>
<g>
</g>
<g>
</g>
<g>
</g>
<g>
</g>
<g>
</g>
<g>
</g>
<g>
</g>
<g>
</g>
<g>
</g>
<g>
</g>
<g>
</g>
<g>
</g>
<g>
</g>
<g>
</g>
</svg>
