<?xml version="1.0" encoding="iso-8859-1"?>
<!-- Generator: Adobe Illustrator 17.1.0, SVG Export Plug-In . SVG Version: 6.00 Build 0)  -->
<!DOCTYPE svg PUBLIC "-//W3C//DTD SVG 1.1//EN" "http://www.w3.org/Graphics/SVG/1.1/DTD/svg11.dtd">
<svg version="1.1" id="Capa_1" xmlns="http://www.w3.org/2000/svg" xmlns:xlink="http://www.w3.org/1999/xlink" x="0px" y="0px"
	 viewBox="0 0 205.992 205.992" style="enable-background:new 0 0 205.992 205.992;" xml:space="preserve">
<path d="M205.461,10.27c1.105-2.783,0.451-5.956-1.666-8.073c-2.118-2.118-5.291-2.772-8.074-1.667
	c-2.262,0.899-55.835,22.45-93.172,59.787c-9.164,9.164-17.793,19.152-25.696,29.737l-12.509-1.098l4.203-25.217
	c0.449-2.693-0.601-5.417-2.741-7.112c-2.141-1.695-5.032-2.094-7.551-1.041c-0.869,0.363-21.492,9.243-39.503,39.017
	c-17.429,28.81-18.66,44.36-18.743,46.039c-0.158,3.196,1.729,6.141,4.699,7.332l13.863,5.56c2.833,1.137,6.074,0.442,8.192-1.757
	l16.015-16.618l6.845,0.241c-0.384,0.871-0.584,1.361-0.609,1.42c-1.141,2.795-0.495,6.002,1.641,8.138l10.379,10.378
	c2.134,2.135,5.342,2.782,8.137,1.641c0.059-0.024,0.549-0.225,1.42-0.609l0.241,6.846l-16.618,16.015
	c-2.199,2.119-2.894,5.358-1.757,8.192l5.56,13.863c1.145,2.854,3.908,4.708,6.959,4.708c0.124,0,0.248-0.003,0.372-0.009
	c1.678-0.083,17.228-1.313,46.039-18.742c29.773-18.011,38.653-38.634,39.017-39.503c1.054-2.519,0.655-5.411-1.04-7.551
	c-1.694-2.14-4.415-3.192-7.112-2.741l-25.216,4.203l-1.099-12.51c10.589-7.906,20.577-16.536,29.737-25.696
	C183.011,66.107,204.562,12.533,205.461,10.27z M156.583,60.547c0,6.142-4.997,11.139-11.139,11.139s-11.139-4.997-11.139-11.139
	s4.997-11.139,11.139-11.139S156.583,54.405,156.583,60.547z"/>
<g>
</g>
<g>
</g>
<g>
</g>
<g>
</g>
<g>
</g>
<g>
</g>
<g>
</g>
<g>
</g>
<g>
</g>
<g>
</g>
<g>
</g>
<g>
</g>
<g>
</g>
<g>
</g>
<g>
</g>
</svg>
