<?xml version="1.0" encoding="iso-8859-1"?>
<!-- Generator: Adobe Illustrator 17.1.0, SVG Export Plug-In . SVG Version: 6.00 Build 0)  -->
<!DOCTYPE svg PUBLIC "-//W3C//DTD SVG 1.1//EN" "http://www.w3.org/Graphics/SVG/1.1/DTD/svg11.dtd">
<svg version="1.1" id="Capa_1" xmlns="http://www.w3.org/2000/svg" xmlns:xlink="http://www.w3.org/1999/xlink" x="0px" y="0px"
	 viewBox="0 0 207.459 207.459" style="enable-background:new 0 0 207.459 207.459;" xml:space="preserve">
<path d="M126.826,80.633c2.663,2.662,2.663,6.995,0,9.658c-1.29,1.29-3.005,2.001-4.83,2.001s-3.54-0.711-4.829-2
	c-2.663-2.664-2.664-6.997,0-9.66c1.29-1.29,3.005-2,4.829-2S125.536,79.342,126.826,80.633z M156.995,105.972l-21.613,21.613
	c6.985,9.435,15.355,25.721,8.404,43.829c-10.299,26.834-50.078,35.525-51.767,35.882c-0.519,0.109-1.039,0.163-1.553,0.163
	c-2.77,0-5.372-1.54-6.673-4.082c-1.542-3.011-0.878-6.681,1.621-8.96c5.432-4.976,12.495-14.335,11.633-18.97
	c-0.452-2.43-1.454-4.716-2.727-6.8l-0.08,0.08c-1.406,1.406-3.314,2.196-5.303,2.196s-3.897-0.79-5.303-2.197l-4.011-4.011
	l-4.16,12.056c-0.843,2.444-2.886,4.281-5.405,4.862c-0.559,0.129-1.124,0.191-1.685,0.191c-1.966,0-3.881-0.774-5.303-2.196
	l-1.525-1.525c-3.18,3.226-7.807,6.828-14.343,9.733c-6.334,2.815-12.784,4.304-18.649,4.304c0,0,0,0-0.001,0
	c-4.164,0-6.751-0.732-7.445-0.957c-2.291-0.74-4.087-2.536-4.828-4.827c-0.356-1.1-3.285-11.176,3.346-26.097
	c2.906-6.537,6.508-11.165,9.734-14.345l-1.525-1.526c-1.828-1.827-2.586-4.469-2.005-6.987c0.581-2.52,2.418-4.562,4.862-5.405
	l12.055-4.16l-4.011-4.011c-1.407-1.407-2.197-3.314-2.197-5.304s0.79-3.896,2.197-5.304l0.054-0.054
	c-2.115-1.298-4.396-2.31-6.774-2.752c-0.223-0.042-0.47-0.063-0.735-0.063c-5.188,0-13.788,6.841-18.237,11.698
	c-2.284,2.492-5.958,3.153-8.964,1.608c-3.007-1.547-4.611-4.909-3.912-8.217c0.357-1.688,9.048-41.467,35.881-51.767
	c4.458-1.711,9.123-2.578,13.866-2.578c12.369,0,23.013,5.87,29.953,10.993l21.625-21.625c14.104-14.103,31.254-20.987,42.22-24.18
	l37.469,37.469C177.983,74.718,171.1,91.867,156.995,105.972z M50.939,167.499l-5.49-5.49l-5.49-5.49
	c-2.051,2.008-4.549,5.148-6.631,9.832c-1.979,4.453-2.72,8.08-2.941,10.711c2.632-0.22,6.272-0.956,10.719-2.933
	C45.79,172.048,48.931,169.55,50.939,167.499z M137.433,70.026c-4.124-4.124-9.605-6.395-15.437-6.395s-11.313,2.271-15.436,6.394
	c-8.511,8.511-8.512,22.36,0,30.873c4.123,4.123,9.605,6.394,15.436,6.394s11.313-2.271,15.437-6.395
	C145.945,92.386,145.944,78.536,137.433,70.026z M188.832,50.193c3.542-3.647,7.68-8.393,11.061-13.639
	c8.011-12.432,7.578-28.61,7.556-29.293c-0.129-3.938-3.313-7.104-7.25-7.25c0,0-0.298-0.011-0.848-0.011
	c-3.918,0-17.551,0.546-28.445,7.565c-5.246,3.381-9.992,7.52-13.638,11.062L188.832,50.193z"/>
<g>
</g>
<g>
</g>
<g>
</g>
<g>
</g>
<g>
</g>
<g>
</g>
<g>
</g>
<g>
</g>
<g>
</g>
<g>
</g>
<g>
</g>
<g>
</g>
<g>
</g>
<g>
</g>
<g>
</g>
</svg>
