<?xml version="1.0" encoding="iso-8859-1"?>
<!-- Generator: Adobe Illustrator 17.1.0, SVG Export Plug-In . SVG Version: 6.00 Build 0)  -->
<!DOCTYPE svg PUBLIC "-//W3C//DTD SVG 1.1//EN" "http://www.w3.org/Graphics/SVG/1.1/DTD/svg11.dtd">
<svg version="1.1" id="Capa_1" xmlns="http://www.w3.org/2000/svg" xmlns:xlink="http://www.w3.org/1999/xlink" x="0px" y="0px"
	 viewBox="0 0 197.1 197.1" style="enable-background:new 0 0 197.1 197.1;" xml:space="preserve">
<path d="M195.952,7.181c-0.559-3.073-2.964-5.479-6.038-6.037c-0.256-0.047-6.37-1.14-15.205-1.14
	c-10.897,0-26.917,1.683-41.343,9.697c-24.064,13.369-57.065,50.813-58.458,52.4c-0.333,0.379-0.626,0.791-0.876,1.229l-4.886,8.559
	l-7.314-7.314c-0.696-0.696-1.522-1.249-2.432-1.625c-0.54-0.224-13.371-5.479-26.332-5.479c-3.808,0-7.338,0.453-10.492,1.348
	C6.485,63.381,1.37,72.497,0.839,73.521c-0.61,1.178-0.896,2.497-0.83,3.822l2.553,51.074c0.093,1.857,0.873,3.614,2.188,4.929
	l10.313,10.313c1.406,1.407,3.314,2.197,5.303,2.197s3.897-0.79,5.303-2.197l16.262-16.262c0.306,0.502,0.652,0.985,1.082,1.415
	l7.333,7.333L34.25,152.239c-2.929,2.929-2.929,7.678,0,10.606c1.464,1.464,3.384,2.197,5.303,2.197s3.839-0.732,5.303-2.197
	l16.096-16.096l7.333,7.333c0.429,0.429,0.903,0.788,1.403,1.094l-16.25,16.251c-2.929,2.929-2.929,7.678,0,10.606l10.313,10.313
	c1.315,1.315,3.071,2.095,4.929,2.188l51.074,2.553c0.125,0.006,0.25,0.009,0.375,0.009c1.198,0,2.38-0.287,3.447-0.839
	c1.025-0.53,10.141-5.645,14.704-21.738c4.395-15.497-3.246-34.686-4.132-36.823c-0.376-0.909-0.929-1.736-1.625-2.432l-7.314-7.314
	l8.559-4.886c0.438-0.25,0.85-0.544,1.229-0.876c1.587-1.393,39.031-34.394,52.4-58.458C201.427,38.471,196.183,8.447,195.952,7.181
	z M156.027,64.838c-3.175,3.174-7.396,4.923-11.885,4.923s-8.71-1.749-11.885-4.923c-6.553-6.553-6.553-17.216,0-23.77
	c3.175-3.174,7.396-4.923,11.885-4.923s8.71,1.749,11.885,4.923C162.58,47.622,162.58,58.285,156.027,64.838z M119.459,101.406
	c-3.175,3.174-7.396,4.923-11.885,4.923s-8.71-1.749-11.885-4.923c-6.553-6.553-6.553-17.216,0-23.77
	c3.175-3.174,7.396-4.923,11.885-4.923s8.71,1.749,11.885,4.923C126.013,84.189,126.013,94.853,119.459,101.406z"/>
<g>
</g>
<g>
</g>
<g>
</g>
<g>
</g>
<g>
</g>
<g>
</g>
<g>
</g>
<g>
</g>
<g>
</g>
<g>
</g>
<g>
</g>
<g>
</g>
<g>
</g>
<g>
</g>
<g>
</g>
</svg>
