<?xml version="1.0" encoding="iso-8859-1"?>
<!-- Generator: Adobe Illustrator 17.1.0, SVG Export Plug-In . SVG Version: 6.00 Build 0)  -->
<!DOCTYPE svg PUBLIC "-//W3C//DTD SVG 1.1//EN" "http://www.w3.org/Graphics/SVG/1.1/DTD/svg11.dtd">
<svg version="1.1" id="Capa_1" xmlns="http://www.w3.org/2000/svg" xmlns:xlink="http://www.w3.org/1999/xlink" x="0px" y="0px"
	 viewBox="0 0 208.683 208.683" style="enable-background:new 0 0 208.683 208.683;" xml:space="preserve">
<path d="M206.486,2.315c-2.93-2.929-7.678-2.929-10.607,0l-20.807,20.807c-3.283-1.243-7.833-2.385-13.514-2.385
	c-15.755,0-32.126,8.382-48.657,24.913c-18.973,18.973-37.047,43.853-50.071,63.44l-28.767,5.992
	c-1.981,0.413-3.711,1.608-4.798,3.315L1.173,162.533c-1.8,2.828-1.505,6.507,0.723,9.011c1.459,1.641,3.515,2.517,5.607,2.517
	c1.103,0,2.216-0.244,3.258-0.747l38.322-18.502l4.67,4.669L35.25,197.803c-1.457,3.019-0.735,6.638,1.77,8.865
	c1.41,1.254,3.192,1.896,4.986,1.896c1.392,0,2.79-0.386,4.025-1.173L90.166,179.3c1.707-1.086,2.902-2.817,3.315-4.798
	l5.897-28.309c19.637-13.039,44.692-31.212,63.773-50.293c29.351-29.351,26.391-51.933,22.521-62.164l20.814-20.814
	C209.415,9.993,209.415,5.244,206.486,2.315z M123.16,106.537c-2.792,2.792-6.502,4.328-10.448,4.328
	c-3.947,0-7.657-1.537-10.448-4.328c-5.76-5.761-5.76-15.134,0-20.895c2.791-2.791,6.501-4.328,10.448-4.328
	c3.946,0,7.656,1.537,10.447,4.327C128.92,91.403,128.92,100.776,123.16,106.537z M160.467,68.537
	c-2.698,2.699-6.285,4.185-10.102,4.185s-7.403-1.486-10.102-4.185c-5.569-5.57-5.568-14.632,0-20.202
	c2.698-2.698,6.285-4.184,10.102-4.184s7.403,1.486,10.102,4.185C166.035,53.905,166.036,62.967,160.467,68.537z"/>
<g>
</g>
<g>
</g>
<g>
</g>
<g>
</g>
<g>
</g>
<g>
</g>
<g>
</g>
<g>
</g>
<g>
</g>
<g>
</g>
<g>
</g>
<g>
</g>
<g>
</g>
<g>
</g>
<g>
</g>
</svg>
