<?xml version="1.0" encoding="iso-8859-1"?>
<!-- Generator: Adobe Illustrator 17.1.0, SVG Export Plug-In . SVG Version: 6.00 Build 0)  -->
<!DOCTYPE svg PUBLIC "-//W3C//DTD SVG 1.1//EN" "http://www.w3.org/Graphics/SVG/1.1/DTD/svg11.dtd">
<svg version="1.1" id="Capa_1" xmlns="http://www.w3.org/2000/svg" xmlns:xlink="http://www.w3.org/1999/xlink" x="0px" y="0px"
	 viewBox="0 0 200.994 200.994" style="enable-background:new 0 0 200.994 200.994;" xml:space="preserve">
<path d="M200.013,5.651C198.354,2.218,194.847,0,191.081,0c-2.228,0-4.349,0.749-6.137,2.166L158.17,23.391l1.247-9.397
	c0.545-4.106-2.341-7.876-6.448-8.421c-4.107-0.553-7.877,2.341-8.421,6.448l-3.289,24.777L99.752,69.702L47.967,41.455
	l13.661-13.661c2.929-2.929,2.929-7.678,0-10.606c-2.929-2.929-7.678-2.929-10.606,0L30.273,37.936L13.315,54.894L2.197,66.012
	c-2.929,2.929-2.929,7.678,0,10.606c1.464,1.464,3.384,2.197,5.303,2.197s3.839-0.732,5.303-2.197l5.815-5.815l35.264,35.263
	l-11.075,8.78c-1.676,1.329-2.706,3.311-2.829,5.446c-0.123,2.135,0.672,4.222,2.185,5.734l32.804,32.804
	c1.411,1.411,3.32,2.197,5.303,2.197c0.144,0,0.288-0.004,0.432-0.012c2.136-0.123,4.117-1.152,5.446-2.829l8.78-11.075
	l35.263,35.264l-5.815,5.815c-2.929,2.929-2.929,7.678,0,10.606c1.464,1.464,3.384,2.197,5.303,2.197s3.839-0.732,5.303-2.197
	l11.118-11.118l16.958-16.958l20.749-20.749c2.929-2.929,2.929-7.678,0-10.606c-2.929-2.929-7.678-2.929-10.606,0l-13.661,13.661
	l-28.248-51.785l32.905-41.507l24.777-3.289c4.106-0.545,6.993-4.315,6.448-8.421c-0.545-4.106-4.321-6.995-8.421-6.448
	l-9.397,1.247l21.226-26.774C201.208,13.047,201.662,9.063,200.013,5.651z M158.317,53.283l-8.792,8.792
	c-1.464,1.464-3.384,2.197-5.303,2.197s-3.839-0.732-5.303-2.197c-2.929-2.929-2.929-7.678,0-10.606l8.792-8.792
	c2.929-2.929,7.678-2.929,10.606,0C161.246,45.606,161.246,50.355,158.317,53.283z M42.496,150.333L27.069,165.76
	c-1.464,1.464-3.384,2.197-5.303,2.197s-3.839-0.732-5.303-2.197c-2.929-2.929-2.929-7.677,0-10.606l15.427-15.427
	c2.929-2.929,7.678-2.93,10.606,0C45.425,142.655,45.425,147.404,42.496,150.333z M61.267,158.498c2.929,2.929,2.929,7.678,0,10.606
	L45.84,184.531c-1.464,1.464-3.384,2.197-5.303,2.197c-1.919,0-3.839-0.732-5.303-2.197c-2.929-2.929-2.929-7.678,0-10.606
	l15.427-15.427C53.589,155.569,58.339,155.569,61.267,158.498z"/>
<g>
</g>
<g>
</g>
<g>
</g>
<g>
</g>
<g>
</g>
<g>
</g>
<g>
</g>
<g>
</g>
<g>
</g>
<g>
</g>
<g>
</g>
<g>
</g>
<g>
</g>
<g>
</g>
<g>
</g>
</svg>
