<?xml version="1.0" encoding="iso-8859-1"?>
<!-- Generator: Adobe Illustrator 17.1.0, SVG Export Plug-In . SVG Version: 6.00 Build 0)  -->
<!DOCTYPE svg PUBLIC "-//W3C//DTD SVG 1.1//EN" "http://www.w3.org/Graphics/SVG/1.1/DTD/svg11.dtd">
<svg version="1.1" id="Capa_1" xmlns="http://www.w3.org/2000/svg" xmlns:xlink="http://www.w3.org/1999/xlink" x="0px" y="0px"
	 viewBox="0 0 212.669 212.669" style="enable-background:new 0 0 212.669 212.669;" xml:space="preserve">
<path d="M210.473,2.197c-2.929-2.929-7.677-2.929-10.607,0l-9.949,9.949c-6.241-4.183-13.578-6.43-21.26-6.43
	c-10.229,0-19.847,3.983-27.081,11.217l-53.38,53.381c-1.018-3.664-2.95-7.028-5.712-9.791c-4.221-4.221-9.833-6.546-15.803-6.546
	s-11.582,2.325-15.803,6.546L6.546,104.854C2.325,109.075,0,114.687,0,120.657c0,5.969,2.325,11.582,6.546,15.803
	s9.833,6.546,15.803,6.546c5.948,0,11.54-2.311,15.756-6.503l3.231,3.231c-4.192,4.216-6.503,9.808-6.503,15.755
	c0,5.969,2.325,11.582,6.545,15.803c4.221,4.221,9.833,6.546,15.803,6.546c5.948,0,11.539-2.31,15.755-6.503l3.23,3.23
	c-4.192,4.216-6.503,9.808-6.503,15.756c0,5.969,2.325,11.582,6.546,15.803s9.833,6.546,15.803,6.546s11.582-2.325,15.803-6.546
	l44.332-44.332c8.713-8.713,8.713-22.892,0-31.605c-2.763-2.763-6.127-4.695-9.792-5.712l53.381-53.381
	c7.234-7.233,11.218-16.851,11.218-27.08c0-7.682-2.247-15.019-6.43-21.26l9.949-9.949C213.401,9.875,213.401,5.126,210.473,2.197z
	 M121.719,106.786c-2.114,2.115-4.927,3.28-7.918,3.28c-2.991,0-5.803-1.165-7.918-3.28c-4.366-4.366-4.366-11.471,0-15.837
	c2.115-2.115,4.927-3.28,7.917-3.28c2.991,0,5.804,1.165,7.919,3.28s3.28,4.927,3.28,7.918S123.835,104.671,121.719,106.786z
	 M159.622,68.883c-2.114,2.115-4.927,3.28-7.918,3.28s-5.804-1.165-7.918-3.28c-4.366-4.366-4.366-11.471,0-15.837
	c2.114-2.115,4.927-3.28,7.918-3.28s5.804,1.165,7.918,3.28C163.988,57.413,163.988,64.517,159.622,68.883z"/>
<g>
</g>
<g>
</g>
<g>
</g>
<g>
</g>
<g>
</g>
<g>
</g>
<g>
</g>
<g>
</g>
<g>
</g>
<g>
</g>
<g>
</g>
<g>
</g>
<g>
</g>
<g>
</g>
<g>
</g>
</svg>
