<?xml version="1.0" encoding="iso-8859-1"?>
<!-- Generator: Adobe Illustrator 17.1.0, SVG Export Plug-In . SVG Version: 6.00 Build 0)  -->
<!DOCTYPE svg PUBLIC "-//W3C//DTD SVG 1.1//EN" "http://www.w3.org/Graphics/SVG/1.1/DTD/svg11.dtd">
<svg version="1.1" id="Capa_1" xmlns="http://www.w3.org/2000/svg" xmlns:xlink="http://www.w3.org/1999/xlink" x="0px" y="0px"
	 viewBox="0 0 213.076 213.076" style="enable-background:new 0 0 213.076 213.076;" xml:space="preserve">
<path d="M211.212,6.346c-0.758-2.085-2.401-3.728-4.486-4.486c-0.853-0.31-5.509-1.855-13.503-1.855
	c-5.964,0-12.286,0.867-18.79,2.579c-8.125,2.139-17.777,6.756-28.689,13.725c-7.53,4.811-14.612,10.513-21.049,16.949
	L97.653,60.301l-11.523-2.999l10.479-10.478c6.529-6.531,6.529-17.158-0.001-23.688l-0.876-0.876
	c-3.164-3.163-7.37-4.905-11.844-4.905s-8.68,1.742-11.844,4.905L8.83,85.472C5.9,88.402,5.9,93.15,8.83,96.08l13.957,13.957
	c1.464,1.464,3.384,2.196,5.303,2.196s3.839-0.732,5.303-2.196l40.438-40.437l11.523,2.999L74.597,83.356
	c-0.775,0.775-1.371,1.711-1.745,2.74l-7.335,20.173l-13.12,13.12l-24.499,6.766c-2.573,0.711-4.574,2.735-5.255,5.316
	c-0.681,2.581,0.061,5.329,1.949,7.217l1.841,1.841c-3.783,2.445-7.901,5.683-12.198,9.979
	c-17.78,17.78-13.943,53.954-13.771,55.484c0.391,3.479,3.137,6.226,6.616,6.616c0.168,0.019,4.192,0.463,10.063,0.463
	c0,0,0,0,0.001,0c14.227,0,33.655-2.47,45.419-14.234c4.302-4.302,7.546-8.414,9.992-12.186l1.83,1.83
	c1.425,1.425,3.34,2.196,5.304,2.196c0.637,0,1.28-0.081,1.913-0.248c2.581-0.681,4.605-2.683,5.316-5.255l6.766-24.498
	l13.121-13.121l20.17-7.335c1.03-0.375,1.965-0.971,2.74-1.745l10.758-10.758l2.999,11.524l-40.438,40.438
	c-1.407,1.407-2.197,3.314-2.197,5.304s0.79,3.896,2.197,5.304l13.958,13.957c1.464,1.464,3.384,2.196,5.303,2.196
	s3.839-0.732,5.303-2.196l63.214-63.214c6.531-6.531,6.531-17.157,0-23.688l-0.876-0.876c-3.164-3.163-7.37-4.905-11.844-4.905
	s-8.68,1.742-11.844,4.905l-10.478,10.478l-2.999-11.524l27.042-27.041c6.438-6.438,12.141-13.52,16.951-21.051
	c6.969-10.914,11.587-20.566,13.725-28.689C215.576,19.309,211.674,7.616,211.212,6.346z M51.957,188.231
	c-8.563,8.563-25.488,9.842-34.814,9.841c-0.753,0-1.471-0.008-2.145-0.022c-0.22-10.842,1.317-28.407,9.844-36.934
	c4.71-4.71,8.996-7.726,12.521-9.657l24.274,24.273C59.706,179.231,56.687,183.501,51.957,188.231z M123.644,104.095
	c-1.959,1.959-4.563,3.038-7.334,3.038c-2.77,0-5.375-1.078-7.334-3.038c-1.958-1.958-3.037-4.563-3.037-7.333
	s1.079-5.375,3.038-7.334c1.958-1.959,4.563-3.037,7.333-3.037c2.771,0,5.375,1.079,7.334,3.038
	c1.959,1.958,3.038,4.563,3.038,7.333S125.603,102.137,123.644,104.095z M159.794,67.945c-1.959,1.959-4.563,3.038-7.334,3.038
	c-2.77,0-5.375-1.078-7.334-3.038c-1.958-1.958-3.037-4.563-3.037-7.333c0-2.77,1.079-5.374,3.038-7.334
	c1.958-1.959,4.563-3.037,7.333-3.037c2.771,0,5.375,1.079,7.333,3.037c1.959,1.959,3.038,4.564,3.038,7.334
	C162.832,63.382,161.753,65.987,159.794,67.945z"/>
<g>
</g>
<g>
</g>
<g>
</g>
<g>
</g>
<g>
</g>
<g>
</g>
<g>
</g>
<g>
</g>
<g>
</g>
<g>
</g>
<g>
</g>
<g>
</g>
<g>
</g>
<g>
</g>
<g>
</g>
</svg>
