<?xml version="1.0" encoding="iso-8859-1"?>
<!-- Generator: Adobe Illustrator 17.1.0, SVG Export Plug-In . SVG Version: 6.00 Build 0)  -->
<!DOCTYPE svg PUBLIC "-//W3C//DTD SVG 1.1//EN" "http://www.w3.org/Graphics/SVG/1.1/DTD/svg11.dtd">
<svg version="1.1" id="Capa_1" xmlns="http://www.w3.org/2000/svg" xmlns:xlink="http://www.w3.org/1999/xlink" x="0px" y="0px"
	 viewBox="0 0 210.261 210.261" style="enable-background:new 0 0 210.261 210.261;" xml:space="preserve">
<path d="M124.301,46.694c-9.497,5.473-19.181,12.022-28.044,19.716l47.593,47.593c7.694-8.863,14.243-18.547,19.716-28.043
	L124.301,46.694z"/>
<path d="M119.009,151.637l-6.706,6.706c-0.904-4.36-2.369-9.048-4.709-13.456c8.543-5.53,17.403-12.184,25.84-20.088L85.46,76.827
	c-7.905,8.439-14.561,17.301-20.091,25.845c-4.411-2.343-9.082-3.815-13.445-4.722l6.699-6.7c2.929-2.929,2.929-7.678,0-10.606
	c-2.93-2.929-7.678-2.929-10.607,0L29.834,98.827l-9.455,9.455L2.196,126.465c-2.21,2.211-2.816,5.561-1.522,8.407
	c1.295,2.846,4.231,4.595,7.339,4.378c0.033-0.002,3.354-0.225,7.912-0.225c6,0,11.36,0.38,15.503,1.101
	c3.796,0.66,8.464,3.027,12.612,5.586c-1.05,2.969-1.597,4.802-1.697,5.144c-0.769,2.63-0.042,5.47,1.896,7.407l7.758,7.758
	c1.427,1.427,3.343,2.197,5.305,2.197c0.702,0,1.41-0.099,2.104-0.301c0.342-0.1,2.175-0.646,5.144-1.697
	c2.558,4.148,4.926,8.816,5.586,12.612c1.755,10.095,0.885,23.283,0.876,23.416c-0.214,3.119,1.529,6.043,4.376,7.339
	c0.996,0.454,2.055,0.674,3.104,0.674c1.949,0,3.868-0.759,5.306-2.197l18.183-18.183l9.455-9.455l18.183-18.183
	c2.929-2.929,2.929-7.678,0-10.606C126.687,148.709,121.939,148.709,119.009,151.637z"/>
<path d="M208.064,2.197c-2.93-2.929-7.678-2.929-10.607,0l-22.558,22.559c-5.176,1.551-19.711,6.243-36.742,14.58l32.768,32.769
	c8.338-17.031,13.029-31.567,14.581-36.742l22.559-22.559C210.993,9.874,210.993,5.125,208.064,2.197z"/>
<g>
</g>
<g>
</g>
<g>
</g>
<g>
</g>
<g>
</g>
<g>
</g>
<g>
</g>
<g>
</g>
<g>
</g>
<g>
</g>
<g>
</g>
<g>
</g>
<g>
</g>
<g>
</g>
<g>
</g>
</svg>
