<?xml version="1.0" encoding="iso-8859-1"?>
<!-- Generator: Adobe Illustrator 17.1.0, SVG Export Plug-In . SVG Version: 6.00 Build 0)  -->
<!DOCTYPE svg PUBLIC "-//W3C//DTD SVG 1.1//EN" "http://www.w3.org/Graphics/SVG/1.1/DTD/svg11.dtd">
<svg version="1.1" id="Capa_1" xmlns="http://www.w3.org/2000/svg" xmlns:xlink="http://www.w3.org/1999/xlink" x="0px" y="0px"
	 viewBox="0 0 215.087 215.087" style="enable-background:new 0 0 215.087 215.087;" xml:space="preserve">
<path d="M75.54,69.632c-0.328,0.854-8.218,21.083-23.466,36.332l-27.318,27.318c-1.465,1.464-3.385,2.196-5.304,2.196
	s-3.839-0.732-5.303-2.196L2.197,121.331c-2.929-2.93-2.929-7.678,0-10.606l27.318-27.32c15.25-15.249,35.479-23.137,36.333-23.465
	c2.767-1.065,5.898-0.399,7.996,1.697C75.94,63.732,76.605,66.865,75.54,69.632z M153.451,141.243
	c-2.098-2.096-5.231-2.761-7.996-1.696c-0.854,0.328-21.083,8.216-36.333,23.467l-27.317,27.317
	c-1.407,1.406-2.197,3.314-2.197,5.304s0.79,3.896,2.196,5.304l11.952,11.952c1.407,1.406,3.314,2.196,5.304,2.196
	s3.897-0.79,5.304-2.197l27.318-27.317c15.25-15.25,23.138-35.479,23.466-36.333C156.212,146.473,155.547,143.339,153.451,141.243z
	 M120.652,84.342c-2.696,0-5.23,1.05-7.137,2.956c-1.907,1.907-2.957,4.441-2.957,7.138c0,2.695,1.05,5.23,2.957,7.137
	c1.905,1.906,4.44,2.956,7.137,2.956s5.23-1.05,7.138-2.956c3.935-3.936,3.935-10.339-0.001-14.273
	C125.882,85.392,123.347,84.342,120.652,84.342z M212.891,2.197c-2.929-2.929-7.678-2.93-10.606-0.001l-14.801,14.8
	c-4.651-1.499-12.155-3.314-21.237-3.314c-11.648,0-22.817,2.971-33.047,8.705l59.473,59.473
	c11.517-20.725,9.695-41.76,5.484-54.323l14.734-14.734C215.82,9.874,215.82,5.126,212.891,2.197z M183.938,94.342
	c-1.352,1.576-2.795,3.139-4.342,4.686c-32.747,32.746-80.174,54.407-82.177,55.313c-0.991,0.449-2.045,0.667-3.089,0.667
	c-1.37,0-2.72-0.383-3.904-1.104l-48.885,29.956c-1.213,0.743-2.569,1.105-3.916,1.105c-1.939,0-3.859-0.75-5.307-2.196
	c-2.451-2.452-2.903-6.266-1.091-9.223l29.963-48.897c-1.269-2.085-1.482-4.69-0.445-6.981c0.905-2.003,22.566-49.43,55.313-82.177
	c1.528-1.527,3.098-2.962,4.694-4.334L183.938,94.342z M79.327,143.113l-7.352-7.352l-11.635,18.987L79.327,143.113z
	 M138.396,76.691c-4.74-4.739-11.042-7.35-17.744-7.35c-6.703,0-13.005,2.61-17.743,7.35c-4.74,4.739-7.351,11.041-7.351,17.744
	c0,6.702,2.61,13.004,7.35,17.744c4.739,4.739,11.041,7.349,17.744,7.349c6.702,0,13.004-2.609,17.744-7.35
	C148.179,102.395,148.179,86.475,138.396,76.691z"/>
<g>
</g>
<g>
</g>
<g>
</g>
<g>
</g>
<g>
</g>
<g>
</g>
<g>
</g>
<g>
</g>
<g>
</g>
<g>
</g>
<g>
</g>
<g>
</g>
<g>
</g>
<g>
</g>
<g>
</g>
</svg>
