<?xml version="1.0" encoding="iso-8859-1"?>
<!-- Generator: Adobe Illustrator 17.1.0, SVG Export Plug-In . SVG Version: 6.00 Build 0)  -->
<!DOCTYPE svg PUBLIC "-//W3C//DTD SVG 1.1//EN" "http://www.w3.org/Graphics/SVG/1.1/DTD/svg11.dtd">
<svg version="1.1" id="Capa_1" xmlns="http://www.w3.org/2000/svg" xmlns:xlink="http://www.w3.org/1999/xlink" x="0px" y="0px"
	 viewBox="0 0 215.332 215.332" style="enable-background:new 0 0 215.332 215.332;" xml:space="preserve">
<path d="M161.437,53.894c3.641,3.641,3.641,9.564,0,13.205c-1.764,1.764-4.107,2.735-6.602,2.735s-4.838-0.971-6.602-2.735
	c-3.641-3.641-3.641-9.564,0-13.205c1.763-1.763,4.107-2.735,6.602-2.735S159.674,52.131,161.437,53.894z M215.238,8.677
	c-0.354,2.231-9.104,55.053-45.494,91.443c-14.454,14.454-30.845,27.955-45.296,38.945l2.678,19.936
	c8.184-3.807,15.192-4.969,15.656-5.042c2.375-0.378,4.783,0.405,6.48,2.104c1.699,1.698,2.481,4.108,2.104,6.48
	c-0.119,0.749-3.055,18.47-15.332,30.747c-11.165,11.166-25.92,20.497-26.543,20.889c-1.23,0.774-2.615,1.152-3.991,1.152
	c-1.938,0-3.859-0.749-5.307-2.197l-8.002-8.003c-2.476-2.476-2.908-6.334-1.044-9.297c0.392-0.623,9.723-15.377,20.887-26.542
	c0.39-0.39,0.785-0.769,1.185-1.14l-2.541-18.913c-14.036,10.077-24.114,16.45-25.008,17.013c-1.23,0.774-2.615,1.152-3.991,1.152
	c-1.938,0-3.858-0.749-5.306-2.196l-2.485-2.485c-5.199,3.809-9.08,6.263-9.393,6.46c-1.23,0.774-2.615,1.152-3.991,1.152
	c-1.938,0-3.858-0.749-5.306-2.196l-8.004-8.003c-2.475-2.476-2.908-6.334-1.044-9.297c0.197-0.313,2.651-4.194,6.459-9.393
	l-2.486-2.486c-2.476-2.476-2.908-6.334-1.044-9.297c0.563-0.894,6.935-10.973,17.013-25.009l-18.914-2.541
	c-0.371,0.4-0.751,0.795-1.14,1.185c-11.165,11.165-25.919,20.496-26.542,20.888c-1.23,0.774-2.615,1.152-3.991,1.152
	c-1.938,0-3.858-0.749-5.306-2.196l-8.004-8.003c-2.475-2.476-2.908-6.334-1.044-9.297c0.392-0.623,9.723-15.377,20.889-26.542
	c12.277-12.278,29.998-15.213,30.746-15.333c2.374-0.375,4.782,0.406,6.481,2.104c1.698,1.699,2.48,4.108,2.104,6.481
	c-0.074,0.465-1.236,7.472-5.043,15.656l19.936,2.678c10.99-14.451,24.491-30.842,38.945-45.296
	c36.392-36.391,89.213-45.14,91.443-45.495c2.374-0.377,4.782,0.406,6.481,2.104C214.833,3.896,215.615,6.305,215.238,8.677z
	 M172.044,43.288c-4.597-4.597-10.709-7.128-17.209-7.128s-12.612,2.532-17.209,7.128c-9.488,9.489-9.488,24.929,0,34.417
	c4.597,4.597,10.708,7.128,17.209,7.128s12.612-2.532,17.209-7.128C181.532,68.216,181.532,52.777,172.044,43.288z"/>
<g>
</g>
<g>
</g>
<g>
</g>
<g>
</g>
<g>
</g>
<g>
</g>
<g>
</g>
<g>
</g>
<g>
</g>
<g>
</g>
<g>
</g>
<g>
</g>
<g>
</g>
<g>
</g>
<g>
</g>
</svg>
