<?xml version="1.0" encoding="iso-8859-1"?>
<!-- Generator: Adobe Illustrator 17.1.0, SVG Export Plug-In . SVG Version: 6.00 Build 0)  -->
<!DOCTYPE svg PUBLIC "-//W3C//DTD SVG 1.1//EN" "http://www.w3.org/Graphics/SVG/1.1/DTD/svg11.dtd">
<svg version="1.1" id="Capa_1" xmlns="http://www.w3.org/2000/svg" xmlns:xlink="http://www.w3.org/1999/xlink" x="0px" y="0px"
	 viewBox="0 0 209.717 209.717" style="enable-background:new 0 0 209.717 209.717;" xml:space="preserve">
<path d="M207.52,12.802l-16.533,16.534c2.908,8.467,6.684,25.581-4.821,37.084c-7.934,7.935-23.31,19.138-33.515,26.283
	l-35.639-35.639c7.145-10.204,18.348-25.58,26.283-33.515c5.133-5.131,12.222-7.844,20.503-7.844c6.412,0,12.497,1.617,16.582,3.024
	l16.532-16.532c2.93-2.93,7.679-2.929,10.606-0.001C210.449,5.126,210.449,9.874,207.52,12.802z M90.792,108.788
	c-2.708,0-5.254,1.055-7.168,2.97c-3.952,3.952-3.952,10.383,0,14.336c1.914,1.914,4.46,2.969,7.168,2.969
	c2.708,0,5.253-1.055,7.168-2.97c3.952-3.952,3.952-10.383,0-14.335C96.045,109.843,93.499,108.788,90.792,108.788z
	 M142.656,103.921l-4.254,11.951c-0.373,1.049-0.975,2.002-1.762,2.789l-6.284,6.284l2.788,37.477
	c0.162,2.177-0.633,4.316-2.176,5.86l-14.469,14.469c-0.002,0.002-0.003,0.003-0.005,0.005L91.73,207.52
	c-1.464,1.464-3.384,2.196-5.303,2.196c-1.919,0-3.839-0.732-5.303-2.196c-2.929-2.93-2.929-7.678,0-10.607l7.824-7.824
	l-2.908-24.11c-2.385,0.719-4.888,1.092-7.449,1.092c-0.001,0-0.001,0-0.002,0c-0.916,0-1.823-0.051-2.721-0.145l-4.528,14.095
	c-0.799,2.488-2.837,4.382-5.378,4.996c-0.584,0.141-1.176,0.21-1.763,0.21c-1.494,0-2.958-0.45-4.2-1.29
	c-2.539,4.675-6.088,10.162-10.624,14.698c-6.928,6.928-16.471,10.59-27.595,10.59c-0.001,0-0.001,0-0.002,0
	c-7.833-0.001-13.744-1.801-14.392-2.007c-2.326-0.736-4.148-2.558-4.885-4.884c-0.329-1.036-7.851-25.558,8.583-41.992
	c4.54-4.539,10.031-8.09,14.708-10.629c-1.17-1.73-1.591-3.885-1.091-5.957c0.615-2.541,2.507-4.578,4.996-5.378l14.108-4.532
	c-0.359-3.404-0.043-6.865,0.951-10.165l-24.128-2.91l-7.824,7.824c-1.464,1.464-3.384,2.196-5.303,2.196s-3.839-0.732-5.303-2.196
	c-2.929-2.93-2.929-7.678,0-10.607l10.401-10.401c0.001-0.001,0.001-0.001,0.002-0.002l28.834-28.834
	c1.543-1.543,3.679-2.338,5.859-2.176l37.478,2.787l6.284-6.284c0.787-0.787,1.74-1.389,2.788-1.762l11.952-4.254L142.656,103.921z
	 M48.77,172.904l-11.959-11.958c-4.14,1.929-10.471,5.351-15.122,10.003c-6.932,6.932-6.593,17.192-5.737,22.822
	c1.619,0.248,3.624,0.453,5.824,0.453c0,0,0.002,0,0.002,0c7.161,0,12.876-2.085,16.988-6.197
	C43.418,183.377,46.84,177.048,48.77,172.904z M108.567,101.15c-4.748-4.747-11.061-7.362-17.775-7.362
	c-6.715,0-13.027,2.615-17.775,7.363c-9.8,9.801-9.8,25.747,0,35.549c4.748,4.747,11.06,7.362,17.775,7.362
	c6.714,0,13.027-2.615,17.775-7.362C118.368,126.898,118.368,110.952,108.567,101.15z"/>
<g>
</g>
<g>
</g>
<g>
</g>
<g>
</g>
<g>
</g>
<g>
</g>
<g>
</g>
<g>
</g>
<g>
</g>
<g>
</g>
<g>
</g>
<g>
</g>
<g>
</g>
<g>
</g>
<g>
</g>
</svg>
