<?xml version="1.0" encoding="iso-8859-1"?>
<!-- Generator: Adobe Illustrator 17.1.0, SVG Export Plug-In . SVG Version: 6.00 Build 0)  -->
<!DOCTYPE svg PUBLIC "-//W3C//DTD SVG 1.1//EN" "http://www.w3.org/Graphics/SVG/1.1/DTD/svg11.dtd">
<svg version="1.1" id="Capa_1" xmlns="http://www.w3.org/2000/svg" xmlns:xlink="http://www.w3.org/1999/xlink" x="0px" y="0px"
	 viewBox="0 0 218.452 218.452" style="enable-background:new 0 0 218.452 218.452;" xml:space="preserve">
<path d="M132.038,86.666c0.982,1.006,1.507,2.307,1.476,3.664c-0.077,3.335-1.414,6.257-4.089,8.931
	c-12.679,12.679-19.856,35.65-17.066,54.62c1.071,7.289-1.611,14.76-4.191,19.94l-24.642-20.092
	c-1.372-1.119-3.052-1.688-4.74-1.688c-1.382,0-2.769,0.381-3.995,1.153l-1.444,0.909l-8.834-8.834l0.909-1.445
	c1.716-2.725,1.501-6.24-0.534-8.736L44.8,110.455c4.385-2.18,10.414-4.437,16.576-4.437c1.149,0,2.279,0.081,3.358,0.239
	c2.735,0.402,5.607,0.606,8.538,0.606c17.259-0.001,35.347-6.938,46.082-17.673c2.674-2.674,5.596-4.012,8.931-4.088l0.116-0.001
	C129.76,85.1,131.051,85.656,132.038,86.666z M207.431,64.718l-63.253,63.253c3.43,1.271,6.577,3.274,9.241,5.937
	c4.859,4.86,7.536,11.321,7.536,18.195s-2.677,13.335-7.536,18.195l-45.957,45.957c-1.465,1.464-3.385,2.197-5.304,2.197
	s-3.839-0.732-5.304-2.197l-25.784-25.784L27.989,147.39L2.206,121.605c-2.929-2.929-2.929-7.678,0-10.606l45.956-45.957
	c4.86-4.86,11.322-7.537,18.195-7.537c6.874,0,13.336,2.676,18.196,7.537c2.663,2.663,4.666,5.81,5.936,9.24l63.252-63.252
	C160.855,3.917,170.312,0,180.372,0C190.43,0,199.887,3.917,207,11.03l0.432,0.431C222.114,26.145,222.114,50.036,207.431,64.718z
	 M148.509,90.674c0.125-5.427-1.915-10.574-5.744-14.492c-3.941-4.033-9.219-6.186-14.825-6.076
	c-7.174,0.165-13.811,3.097-19.192,8.478c-7.941,7.942-22.198,13.279-35.476,13.28c-2.202,0-4.34-0.15-6.354-0.447
	c-1.8-0.264-3.663-0.398-5.541-0.398c-17.036,0-31.772,11.017-32.392,11.486c-1.622,1.229-2.676,3.065-2.918,5.086
	c-0.241,2.021,0.349,4.054,1.635,5.631l22.154,27.17l-1.229,1.951c-1.866,2.963-1.433,6.823,1.043,9.299l17.301,17.301
	c2.477,2.475,6.336,2.91,9.3,1.043l1.951-1.228l27.171,22.154c1.345,1.097,3.021,1.688,4.739,1.688c0.296,0,0.595-0.018,0.892-0.053
	c2.021-0.242,3.857-1.295,5.087-2.918c0.569-0.752,13.924-18.644,11.087-37.932c-2.119-14.412,3.398-32.396,12.834-41.831
	C145.413,104.485,148.344,97.849,148.509,90.674z"/>
<g>
</g>
<g>
</g>
<g>
</g>
<g>
</g>
<g>
</g>
<g>
</g>
<g>
</g>
<g>
</g>
<g>
</g>
<g>
</g>
<g>
</g>
<g>
</g>
<g>
</g>
<g>
</g>
<g>
</g>
</svg>
